<?xml version="1.0" standalone="no"?>
<!DOCTYPE svg PUBLIC "-//W3C//DTD SVG 1.1//EN" "http://www.w3.org/Graphics/SVG/1.1/DTD/svg11.dtd" >
<!--
2013-9-30: Created.
-->
<svg>
<metadata>
Created by iconfont
</metadata>
<defs>

<font id="iconfont" horiz-adv-x="1024" >
  <font-face
    font-family="iconfont"
    font-weight="500"
    font-stretch="normal"
    units-per-em="1024"
    ascent="896"
    descent="-128"
  />
    <missing-glyph />
    
    <glyph glyph-name="x" unicode="x" horiz-adv-x="1001"
d="M281 543q-27 -1 -53 -1h-83q-18 0 -36.5 -6t-32.5 -18.5t-23 -32t-9 -45.5v-76h912v41q0 16 -0.5 30t-0.5 18q0 13 -5 29t-17 29.5t-31.5 22.5t-49.5 9h-133v-97h-438v97zM955 310v-52q0 -23 0.5 -52t0.5 -58t-10.5 -47.5t-26 -30t-33 -16t-31.5 -4.5q-14 -1 -29.5 -0.5
t-29.5 0.5h-32l-45 128h-439l-44 -128h-29h-34q-20 0 -45 1q-25 0 -41 9.5t-25.5 23t-13.5 29.5t-4 30v167h911zM163 247q-12 0 -21 -8.5t-9 -21.5t9 -21.5t21 -8.5q13 0 22 8.5t9 21.5t-9 21.5t-22 8.5zM316 123q-8 -26 -14 -48q-5 -19 -10.5 -37t-7.5 -25t-3 -15t1 -14.5
t9.5 -10.5t21.5 -4h37h67h81h80h64h36q23 0 34 12t2 38q-5 13 -9.5 30.5t-9.5 34.5q-5 19 -11 39h-368zM336 498v228q0 11 2.5 23t10 21.5t20.5 15.5t34 6h188q31 0 51.5 -14.5t20.5 -52.5v-227h-327z" />
    

    
    <glyph glyph-name="error" unicode="&#58880;" d="M596.943125 403.010625l250.68375 250.6725c26.5790625 26.5790625 26.5790625 69.6646875 0.0075 96.23812499-26.578125 26.5734375-69.675 26.578125-96.234375 0.01125001L500.7171875 499.2628125 250.113125 749.92124999c-26.581875 26.5734375-69.6571875 26.578125-96.23437499 0.01125001-26.5846875-26.5715625-26.5846875-69.66-0.01406251-96.2390625l250.6125-250.6725L153.87875001 152.42812500000002c-26.5846875-26.5790625-26.5846875-69.6646875-0.01406251-96.2325 13.2909375-13.295625 30.7021875-19.9396875 48.12375-19.9396875 17.4121875 0 34.8346875 6.6440625 48.1134375 19.92281249l250.6040625 250.59468751 250.52625-250.5778125c13.2928125-13.295625 30.7021875-19.9396875 48.1246875-19.9396875 17.413125 0 34.8215625 6.6440625 48.1171875 19.92281251 26.5790625 26.5725 26.5790625 69.661875 0.0084375 96.24374999L596.943125 403.010625z"  horiz-adv-x="1000" />

    
    <glyph glyph-name="back" unicode="&#59001;" d="M671.968-16c-12.288 0-24.576 4.672-33.952 14.048L286.048 350.016c-18.752 18.72-18.752 49.12 0 67.872l351.968 352c18.752 18.752 49.12 18.752 67.872 0 18.752-18.72 18.752-49.12 0-67.872l-318.016-318.048 318.016-318.016c18.752-18.752 18.752-49.12 0-67.872C696.544-11.328 684.256-16 671.968-16z"  horiz-adv-x="1024" />

    
    <glyph glyph-name="right" unicode="&#59043;" d="M761.056 363.872c0.512 0.992 1.344 1.824 1.792 2.848 8.8 18.304 5.92 40.704-9.664 55.424L399.936 756.256c-19.264 18.208-49.632 17.344-67.872-1.888-18.208-19.264-17.376-49.632 1.888-67.872l316.96-299.84-315.712-304.288c-19.072-18.4-19.648-48.768-1.248-67.872 9.408-9.792 21.984-14.688 34.56-14.688 12 0 24 4.48 33.312 13.44l350.048 337.376c0.672 0.672 0.928 1.6 1.6 2.304 0.512 0.48 1.056 0.832 1.568 1.344C757.76 357.12 759.2 360.608 761.056 363.872z"  horiz-adv-x="1024" />

    
    <glyph glyph-name="down" unicode="&#58885;" d="M480.938564 132.55729399999996l-37.939077 37.939077-364.895641 364.895641c-17.084097 17.083074-17.084097 45.039799 0 62.122873l37.939077 37.939077c17.084097 17.084097 45.039799 17.083074 62.123896 0l333.834204-333.834204 333.834204 333.834204c17.084097 17.084097 45.039799 17.084097 62.123896 0l37.939077-37.939077c17.084097-17.084097 17.084097-45.039799 0-62.122873l-364.895641-364.895641-37.939077-37.939077C525.978363 115.47319700000003 498.022661 115.47319700000003 480.938564 132.55729399999996z"  horiz-adv-x="1024" />

    
    <glyph glyph-name="edit" unicode="&#58914;" d="M515.292728888889 798.2364444444445c0 0 41.352533333333334-5.325937777777778 41.352533333333334-45.73866666666667 0 0-1.8796088888888887-40.726755555555556-40.726755555555556-40.726755555555556L154.39530666666667 711.7710222222222l0-691.1988622222221 691.3035377777778 0-2.7147377777777777 360.3751822222222c0 0 5.638826666666667 43.23214222222222 43.859057777777785 43.23214222222222 0 0 43.23214222222222-1.56672 43.23214222222222-43.859057777777785l0-386.69084444444445c0 0-1.6713955555555557-57.64323555555555-58.270151111111105-57.64323555555555L126.2000355555556-64.01365333333331l-2.506524444444444 0c0 0-52.94421333333333 3.863893333333333-55.13671111111111 58.0608L68.55680000000001 740.9072355555555c0 0 1.56672 52.317297777777775 58.58304 57.330346666666664L515.292728888889 798.2375822222223zM977.6935822222222 721.4830933333333L853.007928888889 845.541831111111c0 0-24.59192888888889 21.772515555555554-47.93230222222222-1.56672L326.9074488888889 367.1119644444444l0-170.26730666666666 172.40746666666666 0 478.3775288888889 475.7674666666666C977.6935822222222 672.6121244444445 1002.4425244444445 696.7341511111111 977.6935822222222 721.4830933333333zM472.26879999999994 281.2222577777778l-60.14976 0 0 56.80810666666667 415.1990044444444 416.0352711111111 60.14976-55.13671111111111L472.26879999999994 281.2222577777778z"  horiz-adv-x="1024" />

    
    <glyph glyph-name="pull-left" unicode="&#59167;" d="M512-64C264.96-64 64 136.96000000000004 64 384S264.96 832 512 832s448-200.96 448-448S759.04-64 512-64zM512 768C300.256 768 128 595.744 128 384c0-211.744 172.256-384 384-384 211.744 0 384 172.256 384 384C896 595.744 723.744 768 512 768zM290.368 371.648c0.032-0.128 0.192-0.256 0.256-0.384 1.536-3.616 3.648-7.072 6.592-10.048 0.032-0.032 0.064-0.032 0.096-0.064s0.032-0.064 0.064-0.096l158.912-159.36c12.48-12.512 32.704-12.576 45.248-0.064 12.512 12.48 12.544 32.704 0.064 45.248l-103.328 103.616 305.056 0c17.664 0 32 14.336 32 32s-14.336 32-32 32l-306.752 0 106.112 104.96c12.576 12.448 12.672 32.672 0.256 45.248-6.24 6.336-14.496 9.504-22.752 9.504-8.128 0-16.256-3.104-22.496-9.248l-160.256-158.496C288 397.088 285.632 383.29600000000005 290.368 371.648z"  horiz-adv-x="1024" />

    
    <glyph glyph-name="option" unicode="&#58921;" d="M294.1118600533333 759.25092352l0-121.04605582222221 726.2926370133333 0L1020.4044959288888 759.25092352 294.1118600533333 759.25092352zM294.1118600533333 323.47697152l726.2926370133333 0L1020.4044959288888 444.5241924266667l-726.2926370133333 0L294.1118600533333 323.47697152zM294.1118600533333 8.747911395555548l726.2926370133333 0L1020.4044959288888 129.79746019555557l-726.2926370133333 0L294.1118600533333 8.747911395555548zM3.595504071111179 638.2048676977778l169.4679711288889 0L173.06347520000008 759.25092352l-169.4679711288889 0L3.595504071111179 638.2048676977778zM3.595504071111179 323.47697152l169.4679711288889 0L173.06347520000008 444.5241924266667l-169.4679711288889 0L3.595504071111179 323.47697152zM3.595504071111179 8.747911395555548l169.4679711288889 0L173.06347520000008 129.79746019555557l-169.4679711288889 0L3.595504071111179 8.747911395555548z"  horiz-adv-x="1024" />

    
    <glyph glyph-name="share" unicode="&#58922;" d="M909.9029333333333 370.21973333333335c-22.867199999999997 0-41.425066666666666-18.557866666666666-41.425066666666666-41.425066666666666 0-0.27626666666666666 0.0832-0.5247999999999999 0.0832-0.8010666666666667h-0.0832v-248.57920000000001c0-30.488533333333333-24.7168-55.233066666666666-55.233066666666666-55.233066666666666h-607.5701333333333c-30.488533333333333 0-55.233066666666666 24.744533333333333-55.233066666666666 55.233066666666666v607.5701333333333c0 30.488533333333333 24.744533333333333 55.233066666666666 55.233066666666666 55.233066666666666l248.55146666666667 0.0832c22.48 0.4704 40.5696 18.779733333333336 40.5696 41.34186666666667 0 22.590933333333332-18.0896 40.87253333333333-40.5696 41.34186666666667v0.0832h-276.16853333333336c-61.00586666666666 0-110.4672-49.43253333333334-110.4672-110.4672v-662.8032000000001c0-61.00586666666666 49.46133333333333-110.4672 110.4672-110.4672h662.8032000000001c61.00586666666666 0 110.4672 49.46133333333333 110.4672 110.4672v276.1952h-0.0832c0 0.27626666666666666 0.0832 0.5247999999999999 0.0832 0.8010666666666667 0 22.893866666666668-18.531200000000002 41.425066666666666-41.425066666666666 41.425066666666666zM937.5210666666667 852.7125333333333h-303.78453333333334c-22.867199999999997 0-41.425066666666666-18.557866666666666-41.425066666666666-41.425066666666666 0-22.893866666666668 18.557866666666666-41.425066666666666 41.425066666666666-41.425066666666666h213.97546666666668c-217.86986666666664-111.4336-391.41226666666665-324.5525333333333-416.4896-575.5626666666667-2.7338666666666667-5.550933333333333-4.6112-11.543466666666665-4.6112-18.144000000000002 0-3.4794666666666667 1.1605333333333334-6.6016 1.9871999999999999-9.860266666666666-0.0832-1.3258666666666667-0.304-2.624-0.3594666666666667-3.9765333333333337h1.1605333333333334c5.745066666666666-16.01813333333333 20.657066666666665-27.6448 38.63573333333333-27.6448s32.891733333333335 11.626666666666667 38.63573333333333 27.6448h4.336c14.9408 236.70399999999998 181.80159999999998 438.47253333333333 385.08906666666667 539.2736v-166.50133333333332c0-22.893866666666668 18.557866666666666-41.4528 41.425066666666666-41.4528s41.425066666666666 18.557866666666666 41.425066666666666 41.4528v276.22293333333334c0 22.867199999999997-18.531200000000002 41.3984-41.425066666666666 41.3984z"  horiz-adv-x="1024" />

    
    <glyph glyph-name="share-android" unicode="&#58895;" d="M815.475 227.04133333333334c-47.573 0-89.719-22.774-116.458-57.86l-307.688 183.178c3.502 13.478 5.548 27.541 5.548 42.075 0 4.247-0.344 8.389-0.64 12.522l307.835 185.484c26.881-31.458 66.762-51.49 111.403-51.49 80.902 0 146.489 65.623 146.489 146.524 0 80.93-65.587 146.483-146.489 146.483-80.93 0-146.517-65.553-146.517-146.483 0-16.08 2.672-31.422 7.432-45.921l-305.219-158.238c-29.644 47.166-81.956 78.588-141.743 78.588-92.447 0-167.428-74.96-167.428-167.47 0-92.433 74.981-167.4 167.436-167.4 49.563 0 93.973 21.684 124.622 55.884l319.809-165.417c-3.08-11.869-4.866-24.202-4.866-37.027 0-80.895 65.587-146.447 146.482-146.447 80.936 0 146.525 65.553 146.525 146.447-0.007 80.944-65.63 146.566-146.531 146.566v0z"  horiz-adv-x="1025" />

    
    <glyph glyph-name="fill-plus" unicode="&#58913;" d="M512-128C229.24800000000005-128 0 101.24800000000005 0 384 0 666.752 229.24800000000005 896 512 896 794.752 896 1024 666.752 1024 384 1024 101.24800000000005 794.752-128 512-128ZM768 448L576 448 576 640C576 675.328 547.328 704 512 704 476.672 704 448 675.328 448 640L448 448 256 448C220.67200000000003 448 192 419.328 192 384 192 348.672 220.67200000000003 320 256 320L448 320 448 128C448 92.67200000000003 476.672 64 512 64 547.328 64 576 92.67200000000003 576 128L576 320 768 320C803.328 320 832 348.672 832 384 832 419.328 803.328 448 768 448Z"  horiz-adv-x="1024" />

    
    <glyph glyph-name="scan-round" unicode="&#59163;" d="M63.74375 354.13125l0 56.25L962 410.38125l0-56.25L63.74375 354.13125zM905.8625 663.50625c0 62.1-50.2875 112.5-112.275 112.5L623.4875 776.00625 623.4875 834l224.4375 0c62.04375 0 112.275-50.4 112.275-112.5l0-228.43125-54.39375 0L905.80625 663.50625zM119.88125 663.50625l0-170.38125L62 493.125 62 721.5c0 62.1 50.2875 112.5 112.275 112.5l227.98125 0 0-57.99375L232.15625 776.00625C170.16875 776.00625 119.88125 725.60625 119.88125 663.50625zM119.88125 101.00625000000002c0-62.1 50.2875-112.5 112.275-112.5l170.04375 0L402.2-66 174.275-66C112.2875-66 62-15.600000000000023 62 46.5l0 224.8875 57.88125 0L119.88125 101.00625000000002zM905.8625 101.00625000000002l0 170.38125 54.39375 0L960.25625 46.5c0-62.1-50.2875-112.5-112.275-112.5l-224.4375 0 0 54.50625 170.04375 0C855.575-11.493749999999977 905.8625 38.85000000000002 905.8625 101.00625000000002z"  horiz-adv-x="1024" />

    
    <glyph glyph-name="round-right" unicode="&#58907;" d="M512 834.3541733333335C266.22161000000006 834.3541733333335 66.97915999999987 635.1117233333332 66.97915999999987 389.3333333333333S266.22161000000006-55.688496666666765 512-55.688496666666765 957.0208400000001 143.55494333333343 957.0208400000001 389.3333333333333 757.77839 834.3541733333335 512 834.3541733333335zM797.2764199999999 104.05691333333345c-37.06461-37.06461-80.21475000000002-66.15972000000001-128.25153000000003-86.47749C619.3130299999999-3.447186666666653 566.48267-14.10849666666661 512-14.10849666666661s-107.31302999999997 10.661310000000004-157.02489000000003 31.68792000000001c-48.036780000000014 20.317770000000007-91.18692000000001 49.41288000000001-128.25153000000003 86.47749-37.06461 37.06461-66.15972000000001 80.21475000000002-86.47749 128.25153000000003C119.22047000000003 282.02030333333346 108.5591599999999 334.8506633333334 108.5591599999999 389.3333333333333s10.661310000000004 107.31302999999997 31.68693000000001 157.02489000000003c20.317770000000007 48.036780000000014 49.41288000000001 91.18692000000001 86.47749 128.25153000000003 37.06461 37.06461 80.21475000000002 66.15972000000001 128.25153000000003 86.47847999999998C404.68697 782.1138533333334 457.51733 792.7741733333335 512 792.7741733333335s107.31302999999997-10.661310000000004 157.02489000000003-31.68693000000001c48.036780000000014-20.317770000000007 91.18692000000001-49.41288000000001 128.25153000000003-86.47847999999998 37.06461-37.06461 66.15972000000001-80.21475000000002 86.47749-128.25153000000003 21.02562-49.71087000000001 31.68693000000001-102.54222000000001 31.68693000000001-157.02489000000003s-10.661310000000004-107.31302999999997-31.68693000000001-157.02489000000003C863.4361400000001 184.27166333333332 834.3410300000002 141.12152333333336 797.2764199999999 104.05691333333345zM759.26537 567.3412733333334c-8.974350000000003 7.161660000000001-22.055220000000002 5.692500000000001-29.21787000000001-3.28185L444.55625 206.3199533333335 288.9728 334.31705333333343c-8.86644 7.294320000000002-21.96711000000001 6.021180000000001-29.263410000000004-2.8462500000000004-7.29531-8.86644-6.020190000000001-21.9681 2.8462500000000004-29.263410000000004l171.87885000000003-141.40367999999998c3.7372500000000013-3.0749400000000002 8.412030000000001-4.735170000000001 13.207590000000001-4.735170000000001 0.7217100000000003 0 1.4444100000000004 0.03762 2.16711 0.11286000000000003 5.5380600000000015 0.5801400000000001 10.61082 3.3580800000000006 14.083740000000002 7.709130000000003l298.65429000000006 374.2328700000001C769.7088800000001 547.0967633333335 768.23972 560.1786233333332 759.26537 567.3412733333334z"  horiz-adv-x="1024" />

    
    <glyph glyph-name="scan-normal" unicode="&#59040;" d="M894.15008369 833.88723633L628.97008291 833.88723633l0-66.23611347 226.61887852-1e-8c0 0 27.78397646-0.89472656 27.78397646-27.78046084l0-228.93040195 66.31521504 0L949.68815292 778.38256552C949.68639511 839.11496895 894.15008369 833.88723633 894.15008369 833.88723633zM140.62354648 739.8689042c0 26.88573428 27.75233584 27.78046084 27.75233584 27.78046084l226.64700352 0L395.02288584 833.88723633 129.87804131 833.88723633c0 0-55.56267862 5.22949043-55.56267862-55.50291299l0-267.4440624 66.30994161 0L140.6253043 739.8689042zM883.34832852 29.350753120000036c0.02460937-26.90858584-27.75936709-27.7892499-27.75936709-27.78924989L627.80816885 1.5615032299999712l0-66.28181661 266.34191396 0c0 0 55.53806924-5.19960761 55.53806924 55.50291299L949.68815292 257.10517852l-66.33806659 0L883.35008633 29.350753120000036zM140.62354648 28.18883993999998L140.62354648 268.78408125 74.31360489 268.78408125 74.31360489-10.382829199999946c0-60.7324043 55.56267862-55.50291299 55.5626786-55.50291299l279.16515265 0-1e-8 66.28181661L168.37588232 0.3960744199999908C168.37588232 0.39431660000002466 140.62354648 1.2697072199999866 140.62354648 28.18883993999998zM154.04971396 348.56940997000004L887.15574951 348.56940997000004 886.00614013 419.43032637 154.04971396 419.43032637Z"  horiz-adv-x="1024" />

    
    <glyph glyph-name="refresh" unicode="&#58930;" d="M680.459225 141.96659499999998c-51.031257-36.201503-110.738104-54.350862-171.774225-53.512774-8.070816 0.086981-16.084327 0.509606-24.001647 1.211595-3.235694 0.311085-6.472412 0.849344-9.722432 1.257643-6.233981 0.832971-12.481266 1.684362-18.549471 2.869351-3.759627 0.721431-7.43432 1.696642-11.109012 2.558265-5.951549 1.420349-11.873422 2.841721-17.681708 4.594645-2.800789 0.87595-5.526877 1.87879-8.296967 2.825348-6.700609 2.276856-13.370519 4.623297-19.87363 7.379061-1.469468 0.599657-2.882654 1.300622-4.352121 1.965771-7.575536 3.377934-15.096836 6.924713-22.332634 10.909467-0.354064 0.184195-0.649799 0.340761-1.003863 0.523933-24.555256 13.654998-47.029106 30.701233-66.731844 50.620911-0.296759 0.306992-0.62217 0.678452-0.946558 1.032516-6.120394 6.217608-11.958356 12.719696-17.517979 19.504216-1.158383 1.440815-2.289136 2.995217-3.463891 4.480035-40.099277 50.801013-64.286142 115.088178-64.286142 185.033203l68.02428 0c1.757017 0 3.456728 0.942465 4.348028 2.596128 0.895393 1.653663 0.74599 3.589758-0.221034 5.059226L176.622138 566.52815c-0.886183 1.343601-2.402723 2.223644-4.128017 2.223644-1.723248 0-3.244904-0.886183-4.128017-2.223644L54.020846 392.879228c-0.966001-1.469468-1.116427-3.405563-0.222057-5.059226 0.889253-1.657756 2.592035-2.596128 4.349051-2.596128l68.037583 0c0-82.228793 25.314549-158.446685 68.330248-221.460858 0.523933-0.873903 0.904603-1.809205 1.484817-2.684132 4.452405-6.447852 9.400091-12.395308 14.176884-18.488073 1.780553-2.303462 3.447519-4.677533 5.298679-6.940063 7.039323-8.651031 14.516622-16.777105 22.204721-24.720008 0.735757-0.791016 1.413186-1.568728 2.139733-2.276856 25.808806-26.165939 54.995545-48.217165 86.74669-65.843614 0.819668-0.49835 1.639337-1.00591 2.543939-1.472538 9.145287-4.971222 18.544355-9.465582 28.069289-13.724583 2.376117-1.026376 4.693906-2.192945 7.111978-3.209088 8.141424-3.420913 16.506952-6.417153 24.951275-9.272177 3.986801-1.37123 7.942903-2.772136 11.985986-4.02978 7.362688-2.203178 14.897292-4.053316 22.50148-5.878894 5.031597-1.186012 10.033517-2.472308 15.165398-3.462868 2.134617-0.437975 4.142343-1.100054 6.232958-1.427512 7.153934-1.286296 14.362102-2.006703 21.532409-2.88163 2.585895-0.313132 5.129834-0.751107 7.716752-1.033539 12.876262-1.286296 25.712615-2.133593 38.535665-2.133593 78.463026 0 155.019633 24.296359 220.688261 70.874187 20.923542 14.883989 26.025747 44.085054 11.368932 65.305355C730.271724 151.72074899999996 701.375603 156.85160699999994 680.459225 141.96659499999998M898.181945 385.223874c-0.039909 81.968873-25.199938 158.031223-68.003813 220.918505-0.621147 1.074472-1.044796 2.163269-1.7519 3.167133-5.314029 7.688099-11.121292 14.853289-16.903995 22.034852-0.665149 0.874927-1.289366 1.793856-1.9934 2.657526-39.170115 48.116881-88.344071 85.276199-144.081513 109.577674-1.541099 0.680499-3.052522 1.429559-4.606925 2.106987-8.890484 3.704368-18.014282 6.983041-27.166733 10.079566-3.307326 1.101077-6.545066 2.317789-9.923 3.321652-7.990998 2.444679-16.089443 4.438079-24.257473 6.345522-4.508687 1.060145-9.019421 2.218528-13.583366 3.124154-2.261507 0.438998-4.3951 1.116427-6.627954 1.526773-6.093788 1.060145-12.214183 1.52575-18.320251 2.332115-4.243651 0.536212-8.370645 1.201361-12.641925 1.638313-10.258645 0.961908-20.435425 1.372254-30.613228 1.555425-1.864464 0-3.660366 0.296759-5.51255 0.296759-0.338714 0-0.649799-0.099261-0.988514-0.12689-78.366835-0.057305-154.75255-24.01495-220.340337-70.536496-20.980847-14.84101-26.083052-44.075845-11.410887-65.304332 14.647605-21.22951 43.580564-26.374694 64.512293-11.490705 50.662867 35.914978 109.762893 54.097082 170.375366 53.544497 8.721639-0.056282 17.303085-0.494257 25.780153-1.299599 2.615571-0.296759 5.204535-0.693802 7.80578-1.017166 6.969739-0.862647 13.878079-1.866511 20.690228-3.223415 3.009544-0.593518 5.984295-1.37123 8.921183-2.048659 6.684236-1.526773 13.361309-3.167133 19.891026-5.163603 2.064009-0.664126 4.093225-1.413186 6.161327-2.091638 7.450692-2.473331 14.784728-5.131881 21.99392-8.170077 0.73678-0.310062 1.483794-0.691755 2.191922-0.989537 43.171242-18.798135 81.034595-47.730071 110.581538-83.947947 0.185218-0.212848 0.36839-0.494257 0.538259-0.706081 41.581024-51.254338 66.618257-116.768447 66.647933-188.108239l-68.051909 0c-1.75804 0-3.458775-0.942465-4.350075-2.601244-0.889253-1.653663-0.744967-3.589758 0.223081-5.061272l114.37391-173.635619c0.881067-1.341554 2.403746-2.222621 4.126994-2.222621 1.726318 0 3.241834 0.88516 4.122901 2.222621l114.317629 173.635619c0.971118 1.471514 1.118474 3.40761 0.226151 5.066389-0.889253 1.653663-2.591011 2.596128-4.348028 2.596128L898.181945 385.226944 898.181945 385.223874 898.181945 385.223874zM898.181945 385.223874"  horiz-adv-x="1024" />

    
    <glyph glyph-name="right-checked-bold" unicode="&#58978;" d="M434.4611-112.55303500000002l-434.4611 443.583323 176.119729 176.119729 258.341371-258.341371L1066.327117 880.674664l176.119729-176.119729L434.4611-112.55303500000002z"  horiz-adv-x="1243" />

    
    <glyph glyph-name="right-checked-round" unicode="&#58884;" d="M1437.322 709.992v0l-799.432-799.432c-18.881-18.881-44.964-30.559-73.772-30.559s-54.892 11.679-73.772 30.559v0l-451.785 451.882c-18.881 18.783-30.559 44.867-30.559 73.675 0 57.616 46.716 104.235 104.235 104.235 28.809 0 54.892-11.679 73.774-30.561v0l378.109-378.012 725.756 725.756c18.881 18.783 44.964 30.462 73.772 30.462 57.519 0 104.235-46.716 104.235-104.235 0-28.809-11.679-54.892-30.559-73.774z"  horiz-adv-x="1484" />

    
    <glyph glyph-name="round-close-empty" unicode="&#59374;" d="M512 839.5733333333334c-246.40000035 0-448.00000035-201.60000000000002-448.00000035-448.00000035s201.60000000000002-448.00000035 448.00000035-447.9999993 448.00000035 201.60000000000002 448.00000035 447.9999993-201.60000000000002 448.00000035-448.00000035 448.00000035z m0-851.2000003499999c-221.75999999999996 0-403.20000000000005 181.44000000000003-403.20000000000005 403.20000000000005s181.44000000000003 403.20000000000005 403.20000000000005 403.20000000000005 403.20000000000005-181.44000000000003 403.20000000000005-403.20000000000005c0-223.99999965-181.44000000000003-403.20000000000005-403.20000000000005-403.20000000000005zM682.23999965 564.0533333333333c-8.95999965 8.95999965-22.39999965 8.95999965-31.3599993 0l-141.12-141.12-141.12 141.12c-8.95999965 8.95999965-22.39999965 8.95999965-31.36000035 0-8.95999965-8.95999965-8.95999965-22.39999965 0-31.36000035l141.12-141.12-141.12-141.12c-8.95999965-8.95999965-8.95999965-22.39999965 0-31.3599993 4.48000035-4.48000035 11.20000035-6.720000000000001 15.67999965-6.720000000000001 6.720000000000001 0 11.20000035 2.2399996499999997 15.680000699999999 6.720000000000001l143.35999965 141.12 141.12-141.12c4.48000035-4.48000035 11.20000035-6.720000000000001 15.67999965-6.720000000000001 6.720000000000001 0 11.20000035 2.2399996499999997 15.680000699999999 6.720000000000001 8.95999965 8.95999965 8.95999965 22.39999965 0 31.3599993l-141.12 141.12 141.12 141.12c6.720000000000001 8.95999965 6.720000000000001 22.39999965-2.2400007000000004 31.36000035z"  horiz-adv-x="1024" />

    
    <glyph glyph-name="round-close-fill" unicode="&#59375;" d="M514.133333 810.666667c-238.933333 0-426.666667-187.733333-426.666666-426.666667C87.466667 149.33333300000004 277.333333-42.66666699999996 512-42.66666699999996c234.666667 0 426.666667 192 426.666667 426.666667 0 236.8-192 426.666667-424.533334 426.666667z m162.133334-558.933334c8.533333-8.533333 8.533333-21.333333 0-29.866666-4.266667-4.266667-10.666667-6.4-14.933334-6.4-6.4 0-10.666667 2.133333-14.933333 6.4L512 356.266667l-136.533333-134.4c-4.266667-4.266667-10.666667-6.4-14.933334-6.4-6.4 0-10.666667 2.133333-14.933333 6.4-8.533333 8.533333-8.533333 21.333333 0 29.866666l134.4 134.4-134.4 134.4c-8.533333 8.533333-8.533333 21.333333 0 29.866667 8.533333 8.533333 21.333333 8.533333 29.866667 0l134.4-134.4 134.4 134.4c8.533333 8.533333 21.333333 8.533333 29.866666 0 8.533333-8.533333 8.533333-21.333333 0-29.866667l-134.4-134.4 136.533334-134.4z"  horiz-adv-x="1024" />

    
    <glyph glyph-name="round-right-fill" unicode="&#58886;" d="M965.9276092307693 384.04408102564105c0-250.81287384615388-203.15724205128208-453.92813435897443-453.92813435897443-453.92813435897443-250.63655076923078 0-453.92813435897443 203.11526051282053-453.92813435897443 453.92813435897443 0 250.7257620512821 203.29158358974362 453.83997230769234 453.92813435897443 453.83997230769234C762.7703671794873 837.8840533333334 965.9276092307693 634.7698430769232 965.9276092307693 384.04408102564105zM777.7074892307692 529.6211948717948l-70.57139384615385 70.52731282051282L412.87941333333333 305.40378666666663l-96.05854051282053 96.37235384615386-70.52731282051282-70.39402051282052 163.6187897435898-163.53062769230772 2.968112820512821 3.05942358974359 2.9250810256410262-3.05942358974359L777.7074892307692 529.6211948717948z"  horiz-adv-x="1024" />

    
    <glyph glyph-name="shop-cart-fill" unicode="&#58887;" d="M346.112 110.42133333333334q19.456 0 36.864-7.168t30.208-19.968 20.48-30.208 7.68-36.864-7.68-36.864-20.48-30.208-30.208-20.48-36.864-7.68q-20.48 0-37.888 7.68t-30.208 20.48-20.48 30.208-7.68 36.864 7.68 36.864 20.48 30.208 30.208 19.968 37.888 7.168zM772.096 108.37333333333333q19.456 0 37.376-7.168t30.72-19.968 20.48-30.208 7.68-36.864-7.68-36.864-20.48-30.208-30.72-20.48-37.376-7.68-36.864 7.68-30.208 20.48-20.48 30.208-7.68 36.864 7.68 36.864 20.48 30.208 30.208 19.968 36.864 7.168zM944.128 690.0053333333333q28.672 0 44.544-7.68t22.528-18.944 6.144-24.064-3.584-22.016-13.312-37.888-22.016-62.976-23.552-68.096-18.944-53.248q-13.312-40.96-33.28-56.832t-49.664-15.872l-35.84 0-65.536 0-86.016 0-96.256 0-253.952 0 14.336-92.16 517.12 0q49.152 0 49.152-41.984 0-20.48-9.728-35.328t-38.4-14.848l-49.152 0-94.208 0-118.784 0-119.808 0-99.328 0-55.296 0q-20.48 0-34.304 9.216t-23.04 24.064-14.848 32.256-8.704 32.768q-1.024 6.144-5.632 29.696t-11.264 58.88-14.848 78.848-16.384 87.552q-19.456 103.424-44.032 230.4l-76.8 0q-15.36 0-25.6 7.68t-16.896 18.432-9.216 23.04-2.56 22.528q0 20.48 13.824 33.792t37.376 13.312l21.504 0 21.504 0 25.6 0 34.816 0q20.48 0 32.768-6.144t19.456-15.36 10.24-19.456 5.12-17.408q2.048-8.192 4.096-23.04t4.096-30.208q3.072-18.432 6.144-38.912l700.416 0zM867.328 722.7733333333333l-374.784 0 135.168 135.168q23.552 23.552 51.712 24.064t51.712-23.04z"  horiz-adv-x="1024" />

    
    <glyph glyph-name="sign-in" unicode="&#59152;" d="M782.46603207 384a41.19405682 41.19405682 0 0 0-12.35821796-29.25194126l-353.68634822-353.68634937A41.44371826 41.44371826 0 0 0 387.16952349-11.296507450000036c-22.76075634 0-41.61015922 18.84940174-41.61015808 41.61015808V217.55936541000005H54.28825429c-22.76075634 0-41.61015922 18.84940174-41.61015922 41.61015808v249.66095302c0 22.76075634 18.84940174 41.61015922 41.61015922 41.61015808h291.27111112V737.68634937c0 22.76075634 18.84940174 41.61015922 41.61015808 41.61015808a41.19405682 41.19405682 0 0 0 29.2519424-12.35821682l353.68634822-353.68634937A41.44371826 41.44371826 0 0 0 782.46603207 384zM1011.32190493 612.85587285v-457.7117457c0-103.35963477-83.88608-187.24571477-187.24571478-187.24571478h-208.05079381a21.38762126 21.38762126 0 0 0-20.80507904 20.80508018c0 18.22524985-8.44686222 62.41523826 20.80507904 62.41523712h208.05079381c57.21396793 0 104.02539634 46.81142841 104.02539748 104.02539748v457.7117457C928.10158763 670.06984078 881.29015922 716.88127033 824.07619015 716.88127033H636.83047651c-16.26957255 0-41.61015922-3.24559189-41.61015921 20.80507904 0 18.22524985-8.44686222 62.41523826 20.80507904 62.41523826h208.05079381C927.43582493 800.10158763 1011.32190493 716.21550763 1011.32190493 612.85587285z"  horiz-adv-x="1024" />

    
    <glyph glyph-name="fill-decrease" unicode="&#58882;" d="M507.6827943822222 895.3351008711111c-281.11787576888884 0-509.8459682133333-228.68617671111107-509.8459682133333-509.80405248 0-281.0759611733333 228.72809130666667-509.8040536177778 509.8459682133333-509.8040536177778s509.8459682133333 228.72809130666667 509.84596707555556 509.8040536177778c-0.0011639466666666667 281.11787576888884-228.72809130666667 509.8040536177778-509.84596707555556 509.80405248z m297.3970488888889-573.5806429866666H252.74642090666663c-35.184996124444446 0-63.73118293333333 28.52522894222222-63.73118293333333 63.73118293333333 0 35.204790044444444 28.54618567111111 63.73118293333333 63.73118293333333 63.73118179555556h552.3322584177779c35.184996124444446 0 63.73118293333333-28.52522894222222 63.73118293333333-63.73118179555556s-28.54618567111111-63.73118293333333-63.730018986666664-63.73118293333333z"  horiz-adv-x="1024" />

    
    <glyph glyph-name="right-checked-uniqle" unicode="&#58902;" d="M409.344-46.847999999999956C477.76 78.144 716.8 301.696 887.488 415.808l67.072 40.96c26.432 14.272 49.536 24.064 67.968 28.16-52.608 119.936-6.464 217.408 1.024 329.856-63.424-32.448-127.424-78.272-189.12-130.496l-71.424-64.192c-205.696-194.88-369.6-435.072-369.6-435.072L273.28 417.472 0.384 284.79999999999995c115.456-41.152 292.096-187.904 408.64-331.584"  horiz-adv-x="1024" />

    
    <glyph glyph-name="right-checked" unicode="&#58883;" d="M359.8768858224064 52.38897293139928l-325.9790830029604 325.9790830029604c-10.867114159568573 10.867114159568573-10.867114159568573 32.59859513597798 0 43.46433562418268s27.165724891875627 10.867114159568573 38.030091708716455 0l325.9790830029604-325.9790830029604c10.867114159568573-10.867114159568573 10.867114159568573-27.165724891875627 0-38.030091708716455s-27.165724891875627-16.298610732307054-38.030091708716455-5.432870244102353zM1000.9679376687589 650.0156891535687l-603.059586466272-597.6280898935335c-10.867114159568573-10.867114159568573-27.165724891875627-10.867114159568573-38.030091708716455 0s-10.867114159568573 27.165724891875627 0 38.030091708716455l597.6280898935335 603.059586466272c10.867114159568573 10.867114159568573 27.165724891875627 10.867114159568573 38.030091708716455 0s10.867114159568573-32.59859513597798 5.432870244102353-43.46433562418268z"  horiz-adv-x="1024" />

    
    <glyph glyph-name="round-right-bold" unicode="&#58915;" d="M512-68.74677477212992C262.36586278897244-68.74677477212992 59.25322522787013 134.36586278897232 59.25322522787013 384S262.36586278897244 836.7467747721298 512 836.7467747721298c249.6951519130965 0 452.74677477212987-203.1126375611023 452.74677477212987-452.74677477212987s-203.0516228590334-452.74677477212987-452.74677477212987-452.74677477212987z m0 825.7199215378282C306.3521573543827 756.9731467656984 139.02685323430165 589.6478426456173 139.02685323430165 384c0-205.5877122145929 167.32530412008106-372.92274331616323 372.97314676569835-372.92274331616323 205.70797307664176 0 372.97314676569835 167.2749006705459 372.97314676569835 372.92274331616323 0 205.64784264561732-167.32530412008106 372.97314676569835-372.97314676569835 372.97314676569835z m-24.820603947419755-577.4537516326063a39.71438114954277 39.71438114954277 0 0 0-31.048524913669965-16.228142208238527h-0.8648170814983261c-11.982756923705335 0-23.281088058985613 5.4329612972655585-30.86724934955222 14.749641021873293l-133.23842389758877 165.33215718583028c-13.763678807281643 17.043440111246156-11.047198158648861 41.98518919175924 5.9953576815528145 55.74886799904087 17.03459740080139 13.77340578877089 42.035592641294414 11.056925140138109 55.74886799904087-5.986514971108046l100.942192540162-125.19951583225006 216.26263226351702 294.11473929030035c12.968719138296988 17.657124216113065 37.84945351674116 21.429424491851165 55.44644730182981 8.460705353554177 17.59699378508864-12.968719138296988 21.419697510361914-37.84945351674116 8.390847941040507-55.44644730182981L487.1785117815358 179.5193951330923z"  horiz-adv-x="1024" />

    
    <glyph glyph-name="decrease-1" unicode="&#58897;" d="M514.048 825.856c244.224 0 442.88-198.656 442.88-442.88s-198.656-442.88-442.88-442.88-442.88 198.656-442.88 442.88 198.656 442.88 442.88 442.88m0 55.808c-275.456 0-499.2-223.232-499.2-499.2s223.232-499.2 499.2-499.2 499.2 223.232 499.2 499.2-223.744 499.2-499.2 499.2zM745.984 351.23199999999997H282.112c-17.408 0-31.232 14.336-31.232 31.232 0 17.408 14.336 31.232 31.232 31.232h463.872c17.408 0 31.232-14.336 31.232-31.232s-14.336-31.232-31.232-31.232z"  horiz-adv-x="1024" />

    
    <glyph glyph-name="add-1" unicode="&#58899;" d="M512 883.2C236.544 883.2 12.8 659.456 12.8 384s223.232-499.2 499.2-499.2 499.2 223.232 499.2 499.2S787.456 883.2 512 883.2z m0-942.08c-244.224 0-442.88 198.656-442.88 442.88S267.776 826.88 512 826.88s442.88-198.656 442.88-442.88-198.656-442.88-442.88-442.88zM743.936 415.232h-200.704V615.9359999999999c0 17.408-14.336 31.232-31.232 31.232-17.408 0-31.232-14.336-31.232-31.232v-200.704H280.064c-17.408 0-31.232-14.336-31.232-31.232 0-17.408 14.336-31.232 31.232-31.232h200.704v-200.704c0-17.408 14.336-31.232 31.232-31.232 17.408 0 31.232 14.336 31.232 31.232v200.704h200.704c17.408 0 31.232 14.336 31.232 31.232 0 17.408-13.824 31.232-31.232 31.232z"  horiz-adv-x="1024" />

    
    <glyph glyph-name="decrease-0" unicode="&#58891;" d="M512-128C229.248-128 0 101.24800000000005 0 384S229.248 896 512 896s512-229.248 512-512-229.248-512-512-512z m0 938.666667C276.352 810.666667 85.333333 619.648 85.333333 384s191.018667-426.666667 426.666667-426.666667 426.666667 191.018667 426.666667 426.666667S747.648 810.666667 512 810.666667z m261.333333-469.333334H250.666667A37.333333 37.333333 0 0 0 213.333333 378.66666699999996v10.666666c0 20.608 16.725333 37.333333 37.333334 37.333334h522.666666c20.608 0 37.333333-16.725333 37.333334-37.333334v-10.666666a37.333333 37.333333 0 0 0-37.333334-37.333334z"  horiz-adv-x="1024" />

    
    <glyph glyph-name="add-0" unicode="&#58893;" d="M512-128C229.248-128 0 101.24800000000005 0 384S229.248 896 512 896s512-229.248 512-512-229.248-512-512-512z m0 938.666667C276.352 810.666667 85.333333 619.648 85.333333 384s191.018667-426.666667 426.666667-426.666667 426.666667 191.018667 426.666667 426.666667S747.648 810.666667 512 810.666667z m261.333333-469.333334H554.666667v-213.333333a42.666667 42.666667 0 0 0-85.333334 0v213.333333H250.666667A37.333333 37.333333 0 0 0 213.333333 378.66666699999996v10.666666c0 20.608 16.725333 37.333333 37.333334 37.333334H469.333333V640a42.666667 42.666667 0 0 0 85.333334 0v-213.333333h218.666666c20.608 0 37.333333-16.725333 37.333334-37.333334v-10.666666a37.333333 37.333333 0 0 0-37.333334-37.333334z"  horiz-adv-x="1024" />

    
    <glyph glyph-name="shop-cart-empty" unicode="&#58888;" d="M347.136 112.63999999999999q19.456 0 36.864-7.168t30.72-19.968 20.48-30.208 7.168-36.864-7.168-36.864-20.48-30.208-30.72-20.48-36.864-7.68q-20.48 0-37.376 7.68t-30.208 20.48-20.48 30.208-7.168 36.864 7.168 36.864 20.48 30.208 30.208 19.968 37.376 7.168zM773.12 110.59199999999998q19.456 0 37.376-7.168t30.72-19.968 20.48-30.208 7.68-36.864-7.68-36.864-20.48-30.208-30.72-20.48-37.376-7.68-36.864 7.68-30.208 20.48-20.48 30.208-7.68 36.864 7.68 36.864 20.48 30.208 30.208 19.968 36.864 7.168zM945.152 692.2239999999999q28.672 0 44.544-7.68t22.528-18.944 6.144-24.064-3.584-22.016-12.8-37.888-22.016-62.976-24.064-68.096-17.92-53.248q-13.312-40.96-33.792-56.832t-50.176-15.872l-34.816 0-66.56 0-87.04 0-95.232 0-253.952 0 15.36-92.16 516.096 0q49.152 0 49.152-41.984 0-20.48-9.728-35.328t-38.4-14.848l-49.152 0-95.232 0-117.76 0-119.808 0-98.304 0-56.32 0q-20.48 0-34.304 9.216t-23.04 24.064-14.848 32.256-8.704 32.768q-1.024 6.144-5.632 29.696t-11.264 58.88-14.848 78.848-16.384 87.552q-19.456 103.424-44.032 230.4l-76.8 0q-15.36 0-25.6 7.68t-16.896 18.432-9.216 23.04-2.56 22.528q0 20.48 13.824 33.792t37.376 13.312l22.528 0 20.48 0 25.6 0 34.816 0q20.48 0 32.768-6.144t19.456-15.36 10.24-19.456 5.12-17.408q2.048-8.192 4.096-23.04t4.096-30.208q3.072-18.432 6.144-38.912l700.416 0z"  horiz-adv-x="1024" />

    


  </font>
</defs>
</svg>
