<svg xmlns="http://www.w3.org/2000/svg" 
  xmlns:xlink="http://www.w3.org/1999/xlink" >
  <path fill-rule="evenodd" fill="rgb(0, 0, 0)" d="M41.000,18.000 C39.895,18.000 39.000,17.105 39.000,16.000 L39.000,8.000 C39.000,5.791 37.209,4.000 35.000,4.000 L8.000,4.000 C5.791,4.000 4.000,5.791 4.000,8.000 L4.000,37.000 C4.000,39.209 5.791,41.000 8.000,41.000 L16.000,41.000 C17.105,41.000 18.000,41.895 18.000,43.000 C18.000,44.105 17.105,45.000 16.000,45.000 L8.000,45.000 C3.582,45.000 0.000,41.418 0.000,37.000 L0.000,8.000 C0.000,3.582 3.582,-0.000 8.000,-0.000 L35.000,-0.000 C39.418,-0.000 43.000,3.582 43.000,8.000 L43.000,16.000 C43.000,17.105 42.105,18.000 41.000,18.000 ZM11.000,28.000 L14.000,28.000 C15.105,28.000 16.000,28.895 16.000,30.000 C16.000,31.105 15.105,32.000 14.000,32.000 L11.000,32.000 C9.895,32.000 9.000,31.105 9.000,30.000 C9.000,28.895 9.895,28.000 11.000,28.000 ZM9.000,21.000 C9.000,19.895 9.895,19.000 11.000,19.000 L19.000,19.000 C20.105,19.000 21.000,19.895 21.000,21.000 C21.000,22.105 20.105,23.000 19.000,23.000 L11.000,23.000 C9.895,23.000 9.000,22.105 9.000,21.000 ZM9.000,12.000 C9.000,10.895 9.895,10.000 11.000,10.000 L32.000,10.000 C33.105,10.000 34.000,10.895 34.000,12.000 C34.000,13.105 33.105,14.000 32.000,14.000 L11.000,14.000 C9.895,14.000 9.000,13.105 9.000,12.000 Z"/>
  <path fill-rule="evenodd" fill="rgb(235, 194, 21)" d="M47.501,46.426 L44.491,49.059 L39.092,42.887 C37.051,44.219 34.618,45.000 32.000,45.000 C24.820,45.000 19.000,39.180 19.000,32.000 C19.000,24.820 24.820,19.000 32.000,19.000 C39.180,19.000 45.000,24.820 45.000,32.000 C45.000,35.118 43.900,37.977 42.071,40.217 L47.501,46.426 ZM32.000,23.000 C27.029,23.000 23.000,27.029 23.000,32.000 C23.000,36.971 27.029,41.000 32.000,41.000 C36.971,41.000 41.000,36.971 41.000,32.000 C41.000,27.029 36.971,23.000 32.000,23.000 Z"/>
</svg>